<svg xml:space="preserve" viewBox="0 0 150 150" y="0" x="0" xmlns="http://www.w3.org/2000/svg"  xmlns:xlink="http://www.w3.org/1999/xlink" >
<g id="Layer_2" data-name="Layer 2">
<g id="Layer_1-2" data-name="Layer 1">
<path fill="#c33737" d="M52 14.5V90c20.8 0 37.7-16.9 37.7-37.7S72.9 14.5 52 14.5z" style="fill:rgb(195, 55, 55)" ></path>
<path fill="#f8b26a" d="M48 10c-13.9 0-26.1 7.6-32.6 18.8L48 47.6V10z" style="fill:rgb(248, 178, 106)" ></path>
<path fill="#666" d="M48 90V52.1L15.4 33.3c-3.2 5.6-5.1 12-5.1 19C10.3 73.1 27.1 90 48 90z" style="fill:rgb(102, 102, 102)" ></path>
<path fill="#f47e60" d="M48 90V52.1L15.4 33.3c-3.2 5.6-5.1 12-5.1 19C10.3 73.1 27.1 90 48 90z" style="fill:rgb(244, 126, 96)" ></path>
</g>
</g>
</svg>